<?xml version="1.0" standalone="no"?>
<!DOCTYPE svg PUBLIC "-//W3C//DTD SVG 20010904//EN" "http://www.w3.org/TR/2001/REC-SVG-20010904/DTD/svg10.dtd">
<svg version="1.0" xmlns="http://www.w3.org/2000/svg"
     width="10pt" height="10pt" viewBox="0 0 200 200"
     preserveAspectRatio="xMidYMid meet">

  <g transform="translate(0.000000,200.000000) scale(0.100000,-0.100000)"
     fill="#000000" stroke="none">
    <path d="M1085 1802 c-17 -10 -44 -35 -62 -55 -28 -32 -38 -37 -108 -46 -124
-18 -270 -68 -290 -101 -3 -5 -23 3 -46 20 -123 88 -264 76 -386 -34 -44 -40
-56 -59 -73 -113 -11 -36 -20 -91 -20 -122 0 -97 63 -284 111 -327 15 -13 19
-31 19 -78 1 -34 7 -97 15 -141 19 -102 19 -101 -5 -125 -30 -30 -37 -25 -42
34 -3 39 -12 65 -32 90 -32 42 -52 45 -68 11 -7 -16 -19 -25 -35 -25 -29 0
-39 -23 -25 -55 7 -15 8 -26 2 -30 -20 -12 -9 -44 25 -74 39 -34 79 -40 110
-17 11 8 25 11 33 9 7 -3 27 4 43 16 27 20 30 21 36 4 44 -124 102 -240 134
-269 50 -45 189 -55 231 -17 9 8 22 30 28 48 20 60 64 56 81 -8 23 -85 105
-128 212 -110 59 9 59 9 83 -23 54 -71 148 -111 188 -81 19 14 19 15 -2 63
l-21 49 64 7 c90 9 105 15 112 48 l5 29 53 -55 c80 -81 172 -116 209 -78 25
25 24 29 -54 144 -22 33 -65 118 -74 146 -6 20 -1 22 66 32 120 18 254 99 308
187 31 50 52 132 45 168 -8 36 -32 67 -52 67 -7 0 -43 -31 -79 -70 -63 -66
-165 -132 -181 -116 -11 11 25 74 56 97 38 28 74 81 91 134 7 22 19 44 26 48
21 12 18 78 -3 84 -29 7 -54 70 -41 102 17 45 15 209 -5 273 -39 130 -157 197
-264 153 -21 -9 -45 -22 -53 -30 -15 -13 -19 -12 -41 11 -35 38 -75 55 -130
57 -42 2 -49 5 -49 22 0 11 -7 31 -16 43 -19 28 -86 30 -129 4z m-79 -477 c17
-7 51 -30 74 -51 170 -154 80 -403 -147 -404 -102 0 -188 49 -239 136 -76 129
-11 290 134 331 52 14 128 9 178 -12z m625 -26 c33 -54 36 -250 4 -357 -19
-61 -36 -72 -121 -72 -110 0 -194 63 -218 163 -4 16 -2 27 4 27 5 0 10 -11 10
-24 0 -14 12 -39 26 -56 56 -65 134 -12 134 92 0 104 -69 161 -127 106 -38
-36 -26 -4 17 45 59 66 130 99 203 94 36 -2 62 -9 68 -18z m137 -178 c4 -71
-9 -110 -57 -171 -25 -32 -32 -24 -21 25 5 22 12 78 16 125 5 60 12 88 23 97
25 18 35 -1 39 -76z m-457 -7 c-5 -16 -10 -21 -10 -12 -1 18 10 51 15 45 2 -1
-1 -16 -5 -33z m-286 -410 c25 -27 34 -47 39 -89 8 -73 53 -194 115 -312 28
-53 51 -97 51 -99 0 -2 -13 -4 -28 -4 -36 0 -92 57 -149 153 -22 38 -43 65
-45 60 -3 -4 -3 -2 -2 5 5 19 -7 43 -19 35 -6 -3 -7 -1 -3 5 4 7 -2 45 -13 84
-10 40 -21 101 -24 136 -5 61 -5 62 20 62 16 0 37 -13 58 -36z m500 -231 c14
-32 49 -91 76 -131 41 -58 47 -73 35 -78 -26 -10 -62 4 -92 35 -15 17 -31 28
-35 26 -4 -3 -13 3 -20 12 -12 14 -12 16 0 9 8 -5 12 -5 9 0 -33 69 -68 145
-68 148 0 6 51 35 62 36 3 0 18 -26 33 -57z"/>
    <path d="M938 1220 c-77 -46 -76 -215 3 -255 36 -19 54 -19 90 2 79 47 79 199
0 246 -32 19 -67 21 -93 7z"/>
  </g>
</svg>

