<?xml version="1.0" encoding="utf-8"?>
<!-- Generator: Adobe Illustrator 27.1.1, SVG Export Plug-In . SVG Version: 6.00 Build 0)  -->
<svg version="1.1" id="Ebene_1" xmlns="http://www.w3.org/2000/svg" xmlns:xlink="http://www.w3.org/1999/xlink" x="0px" y="0px"
	 viewBox="0 0 16 16" style="enable-background:new 0 0 16 16;" xml:space="preserve">
<style type="text/css">
	.st0{fill:#FFFFFF;}
</style>
<path class="st0" d="M15,5c0-0.55-0.45-1-1-1c-0.18,0-0.34,0.06-0.49,0.15L13.5,4.14L12,5c0-2.21-1.79-4-4-4S4,2.79,4,5L2.5,4.14
	L2.49,4.15C2.34,4.06,2.18,4,2,4C1.45,4,1,4.45,1,5c0,0.32,0.16,0.6,0.4,0.78L1.4,5.79L4,9.92v4.28C4,14.64,4.36,15,4.8,15
	c0.44,0,0.8-0.36,0.8-0.8c0,0.44,0.36,0.8,0.8,0.8c0.44,0,0.8-0.36,0.8-0.8C7.2,14.64,7.56,15,8,15s0.8-0.36,0.8-0.8
	c0,0.44,0.36,0.8,0.8,0.8c0.44,0,0.8-0.36,0.8-0.8c0,0.44,0.36,0.8,0.8,0.8s0.8-0.36,0.8-0.8V9.92l2.6-4.13L14.6,5.78
	C14.84,5.6,15,5.32,15,5z M6,6C5.45,6,5,5.55,5,5c0-0.55,0.45-1,1-1s1,0.45,1,1C7,5.55,6.55,6,6,6z M8,9C7.45,9,7,8.33,7,7.5
	S7.45,6,8,6s1,0.67,1,1.5S8.55,9,8,9z M10,6C9.45,6,9,5.55,9,5c0-0.55,0.45-1,1-1s1,0.45,1,1C11,5.55,10.55,6,10,6z"/>
</svg>
